HIERARCHY
ROOT Root
{
  OFFSET 0.0 0.0 0.0
  CHANNELS 6 Xposition Yposition Zposition Zrotation Yrotation Xrotation
  JOINT Hips
  {
    OFFSET 0.0 100.0 0.0
    CHANNELS 6 Xposition Yposition Zposition Zrotation Yrotation Xrotation
    JOINT Spine1
    {
      OFFSET -0.013727 5.003763 -0.053727
      CHANNELS 3 Zrotation Yrotation Xrotation
      JOINT Spine2
      {
        OFFSET -0.0 7.125301 -0.029825
        CHANNELS 3 Zrotation Yrotation Xrotation
        JOINT Chest
        {
          OFFSET -1e-06 7.550063 -0.815971
          CHANNELS 3 Zrotation Yrotation Xrotation
          JOINT Neck1
          {
            OFFSET -0.181677 26.311295 -0.553348
            CHANNELS 3 Zrotation Yrotation Xrotation
            JOINT Neck2
            {
              OFFSET -3e-06 7.709397 2.302585
              CHANNELS 3 Zrotation Yrotation Xrotation
              JOINT Head
              {
                OFFSET -5e-06 6.128916 1.953709
                CHANNELS 3 Zrotation Yrotation Xrotation
                JOINT HeadEnd
                {
                  OFFSET 0.003598 16.065403 -1.835379
                  CHANNELS 3 Zrotation Yrotation Xrotation
                }
                JOINT Jaw
                {
                  OFFSET 0.002637 0.475592 3.094941
                  CHANNELS 3 Zrotation Yrotation Xrotation
                }
                JOINT LeftEye
                {
                  OFFSET 3.206381 5.380205 7.586883
                  CHANNELS 3 Zrotation Yrotation Xrotation
                }
                JOINT RightEye
                {
                  OFFSET -3.22244 5.361869 7.558234
                  CHANNELS 3 Zrotation Yrotation Xrotation
                }
              }
            }
          }
          JOINT LeftShoulder
          {
            OFFSET 1.621652 23.237164 5.113413
            CHANNELS 3 Zrotation Yrotation Xrotation
            JOINT LeftArm
            {
              OFFSET 14.919846 2e-06 -5.502326
              CHANNELS 3 Zrotation Yrotation Xrotation
              JOINT LeftForeArm
              {
                OFFSET 28.739307 0.0 -0.002588
                CHANNELS 3 Zrotation Yrotation Xrotation
                JOINT LeftHand
                {
                  OFFSET 27.093981 -1e-06 0.002609
                  CHANNELS 3 Zrotation Yrotation Xrotation
                  JOINT LeftHandThumb1
                  {
                    OFFSET 2.276482 -1.392045 3.191413
                    CHANNELS 3 Zrotation Yrotation Xrotation
                    JOINT LeftHandThumb2
                    {
                      OFFSET 4.012836 -1.828127 1.641654
                      CHANNELS 3 Zrotation Yrotation Xrotation
                      JOINT LeftHandThumb3
                      {
                        OFFSET 2.798515 0.0 -3e-06
                        CHANNELS 3 Zrotation Yrotation Xrotation
                        JOINT LeftHandThumbEnd
                        {
                          OFFSET 3.180793 -4e-06 4e-06
                          CHANNELS 3 Zrotation Yrotation Xrotation
                        }
                      }
                    }
                  }
                  JOINT LeftHandIndex1
                  {
                    OFFSET 3.247555 -0.531998 2.296169
                    CHANNELS 3 Zrotation Yrotation Xrotation
                    JOINT LeftHandIndex2
                    {
                      OFFSET 6.364578 0.01206 0.1786
                      CHANNELS 3 Zrotation Yrotation Xrotation
                      JOINT LeftHandIndex3
                      {
                        OFFSET 3.662364 0.0 0.0
                        CHANNELS 3 Zrotation Yrotation Xrotation
                        JOINT LeftHandIndex4
                        {
                          OFFSET 2.329242 4e-06 4e-06
                          CHANNELS 3 Zrotation Yrotation Xrotation
                          JOINT LeftHandIndexEnd
                          {
                            OFFSET 2.759615 -0.180537 -0.113024
                            CHANNELS 3 Zrotation Yrotation Xrotation
                          }
                        }
                      }
                    }
                  }
                  JOINT LeftHandMiddle1
                  {
                    OFFSET 3.163495 0.240981 1.000332
                    CHANNELS 3 Zrotation Yrotation Xrotation
                    JOINT LeftHandMiddle2
                    {
                      OFFSET 6.19078 -0.259278 -1.002548
                      CHANNELS 3 Zrotation Yrotation Xrotation
                      JOINT LeftHandMiddle3
                      {
                        OFFSET 4.35652 -4e-06 -1e-06
                        CHANNELS 3 Zrotation Yrotation Xrotation
                        JOINT LeftHandMiddle4
                        {
                          OFFSET 2.996877 -8e-06 0.0
                          CHANNELS 3 Zrotation Yrotation Xrotation
                          JOINT LeftHandMiddleEnd
                          {
                            OFFSET 2.304287 -0.294569 -0.031741
                            CHANNELS 3 Zrotation Yrotation Xrotation
                          }
                        }
                      }
                    }
                  }
                  JOINT LeftHandRing1
                  {
                    OFFSET 2.882643 -0.053652 -0.322543
                    CHANNELS 3 Zrotation Yrotation Xrotation
                    JOINT LeftHandRing2
                    {
                      OFFSET 5.854541 -0.486202 -1.373841
                      CHANNELS 3 Zrotation Yrotation Xrotation
                      JOINT LeftHandRing3
                      {
                        OFFSET 4.350578 0.0 3e-06
                        CHANNELS 3 Zrotation Yrotation Xrotation
                        JOINT LeftHandRing4
                        {
                          OFFSET 2.651321 7e-06 2e-06
                          CHANNELS 3 Zrotation Yrotation Xrotation
                          JOINT LeftHandRingEnd
                          {
                            OFFSET 1.936105 0.077687 -7.1e-05
                            CHANNELS 3 Zrotation Yrotation Xrotation
                          }
                        }
                      }
                    }
                  }
                  JOINT LeftHandPinky1
                  {
                    OFFSET 2.8655 -0.310005 -1.600378
                    CHANNELS 3 Zrotation Yrotation Xrotation
                    JOINT LeftHandPinky2
                    {
                      OFFSET 5.087849 -1.331141 -1.77123
                      CHANNELS 3 Zrotation Yrotation Xrotation
                      JOINT LeftHandPinky3
                      {
                        OFFSET 3.070974 4e-06 0.0
                        CHANNELS 3 Zrotation Yrotation Xrotation
                        JOINT LeftHandPinky4
                        {
                          OFFSET 1.549672 0.0 1e-06
                          CHANNELS 3 Zrotation Yrotation Xrotation
                          JOINT LeftHandPinkyEnd
                          {
                            OFFSET 1.944893 -0.157802 0.057219
                            CHANNELS 3 Zrotation Yrotation Xrotation
                          }
                        }
                      }
                    }
                  }
                }
              }
            }
          }
          JOINT RightShoulder
          {
            OFFSET -1.380118 23.180309 5.214158
            CHANNELS 3 Zrotation Yrotation Xrotation
            JOINT RightArm
            {
              OFFSET -15.037196 1.2e-05 -5.545604
              CHANNELS 3 Zrotation Yrotation Xrotation
              JOINT RightForeArm
              {
                OFFSET -28.736639 2e-06 -0.002597
                CHANNELS 3 Zrotation Yrotation Xrotation
                JOINT RightHand
                {
                  OFFSET -27.133619 -0.0 0.002613
                  CHANNELS 3 Zrotation Yrotation Xrotation
                  JOINT RightHandThumb1
                  {
                    OFFSET -2.274032 -1.383988 3.163127
                    CHANNELS 3 Zrotation Yrotation Xrotation
                    JOINT RightHandThumb2
                    {
                      OFFSET -4.011429 -1.827466 1.640914
                      CHANNELS 3 Zrotation Yrotation Xrotation
                      JOINT RightHandThumb3
                      {
                        OFFSET -2.794935 -4e-06 -3e-06
                        CHANNELS 3 Zrotation Yrotation Xrotation
                        JOINT RightHandThumbEnd
                        {
                          OFFSET -3.183852 4e-06 1e-06
                          CHANNELS 3 Zrotation Yrotation Xrotation
                        }
                      }
                    }
                  }
                  JOINT RightHandIndex1
                  {
                    OFFSET -3.253266 -0.520057 2.282866
                    CHANNELS 3 Zrotation Yrotation Xrotation
                    JOINT RightHandIndex2
                    {
                      OFFSET -6.341917 0.012471 0.178266
                      CHANNELS 3 Zrotation Yrotation Xrotation
                      JOINT RightHandIndex3
                      {
                        OFFSET -3.654871 -8e-06 -0.0
                        CHANNELS 3 Zrotation Yrotation Xrotation
                        JOINT RightHandIndex4
                        {
                          OFFSET -2.327586 0.0 1e-06
                          CHANNELS 3 Zrotation Yrotation Xrotation
                          JOINT RightHandIndexEnd
                          {
                            OFFSET -2.76179 -0.180656 -0.113078
                            CHANNELS 3 Zrotation Yrotation Xrotation
                          }
                        }
                      }
                    }
                  }
                  JOINT RightHandMiddle1
                  {
                    OFFSET -3.168106 0.246593 1.00103
                    CHANNELS 3 Zrotation Yrotation Xrotation
                    JOINT RightHandMiddle2
                    {
                      OFFSET -6.180828 -0.258836 -1.000895
                      CHANNELS 3 Zrotation Yrotation Xrotation
                      JOINT RightHandMiddle3
                      {
                        OFFSET -4.348901 0.0 -0.0
                        CHANNELS 3 Zrotation Yrotation Xrotation
                        JOINT RightHandMiddle4
                        {
                          OFFSET -3.00024 -4e-06 -2e-06
                          CHANNELS 3 Zrotation Yrotation Xrotation
                          JOINT RightHandMiddleEnd
                          {
                            OFFSET -2.30252 -0.29437 -0.031706
                            CHANNELS 3 Zrotation Yrotation Xrotation
                          }
                        }
                      }
                    }
                  }
                  JOINT RightHandRing1
                  {
                    OFFSET -2.88569 -0.067952 -0.308858
                    CHANNELS 3 Zrotation Yrotation Xrotation
                    JOINT RightHandRing2
                    {
                      OFFSET -5.854198 -0.48613 -1.373731
                      CHANNELS 3 Zrotation Yrotation Xrotation
                      JOINT RightHandRing3
                      {
                        OFFSET -4.33881 -4e-06 -0.0
                        CHANNELS 3 Zrotation Yrotation Xrotation
                        JOINT RightHandRing4
                        {
                          OFFSET -2.654903 -4e-06 4e-06
                          CHANNELS 3 Zrotation Yrotation Xrotation
                          JOINT RightHandRingEnd
                          {
                            OFFSET -1.933568 0.077527 -5.2e-05
                            CHANNELS 3 Zrotation Yrotation Xrotation
                          }
                        }
                      }
                    }
                  }
                  JOINT RightHandPinky1
                  {
                    OFFSET -2.866425 -0.342796 -1.584145
                    CHANNELS 3 Zrotation Yrotation Xrotation
                    JOINT RightHandPinky2
                    {
                      OFFSET -5.091371 -1.332055 -1.772385
                      CHANNELS 3 Zrotation Yrotation Xrotation
                      JOINT RightHandPinky3
                      {
                        OFFSET -3.062664 -4e-06 1e-06
                        CHANNELS 3 Zrotation Yrotation Xrotation
                        JOINT RightHandPinky4
                        {
                          OFFSET -1.546529 4e-06 -2e-06
                          CHANNELS 3 Zrotation Yrotation Xrotation
                          JOINT RightHandPinkyEnd
                          {
                            OFFSET -1.945119 -0.157718 0.057211
                            CHANNELS 3 Zrotation Yrotation Xrotation
                          }
                        }
                      }
                    }
                  }
                }
              }
            }
          }
        }
      }
    }
    JOINT LeftLeg
    {
      OFFSET 10.043214 -8.434526 2.595655
      CHANNELS 3 Zrotation Yrotation Xrotation
      JOINT LeftShin
      {
        OFFSET -1e-06 -43.221752 -0.802913
        CHANNELS 3 Zrotation Yrotation Xrotation
        JOINT LeftFoot
        {
          OFFSET 1e-06 -42.155094 -3.481523
          CHANNELS 3 Zrotation Yrotation Xrotation
          JOINT LeftToeBase
          {
            OFFSET 0.0 -5.059472 13.231529
            CHANNELS 3 Zrotation Yrotation Xrotation
            JOINT LeftToeEnd
            {
              OFFSET -0.009607 -1.647619 6.513017
              CHANNELS 3 Zrotation Yrotation Xrotation
            }
          }
        }
      }
    }
    JOINT RightLeg
    {
      OFFSET -10.047278 -8.29526 2.620317
      CHANNELS 3 Zrotation Yrotation Xrotation
      JOINT RightShin
      {
        OFFSET 1e-06 -43.362206 -0.805556
        CHANNELS 3 Zrotation Yrotation Xrotation
        JOINT RightFoot
        {
          OFFSET 2e-06 -42.117393 -3.478398
          CHANNELS 3 Zrotation Yrotation Xrotation
          JOINT RightToeBase
          {
            OFFSET -0.0 -5.079609 13.284196
            CHANNELS 3 Zrotation Yrotation Xrotation
            JOINT RightToeEnd
            {
              OFFSET 0.009532 -1.634378 6.460591
              CHANNELS 3 Zrotation Yrotation Xrotation
            }
          }
        }
      }
    }
  }
}
MOTION
Frames: 4
Frame Time: 0.03333333333333333
0.0 0.0 0.0 0.0 -0.0 0.0 4.980876 100.08757 3.375849 1.269524 -0.485976 6.970061 0.274734 -0.298335 -2.675702 -0.495064 -0.100322 -5.863002 -1.522213 -1.881918 10.473434 1.278135 1.885229 -9.705019 0.002751 2.269671 -3.550132 -0.41258 1.548786 -2.705617 7.7e-05 -2.2e-05 6e-06 0.00197 -0.05654 -0.065995 0.770421 -3.796803 -10.676109 -0.771727 3.690992 -10.656918 -14.947736 -3.10723 16.297287 -51.703915 -9.445942 20.002731 -0.216757 -41.935986 0.051593 2.643699 -11.337327 -26.506275 -5.882105 9.861286 0.702589 -10.936868 -0.360576 7.156204 -0.0 8.774826 -1e-06 -15.839533 17.929983 6.679887 -1.844032 2.498504 -2.507278 -10.163595 4.678946 4.621105 -20.976021 -5e-06 -1e-06 -21.226282 2.451695 -3.594001 -0.0 -6e-06 -1e-06 -1.362682 2.240798 -0.746322 -21.334908 0.584908 3.00832 -13.821213 -4e-06 -0.0 -23.887167 -0.249082 -0.839485 -60.895535 2.506974 -0.69413 -0.294024 1.679688 0.833255 -14.218205 0.093216 1.300579 -34.21204 -0.287565 0.967168 -20.033211 0.964536 1.212841 -0.0 0.0 -1e-06 -3.440388 0.788234 0.501656 -15.928183 -3.16731 2.999707 -6.338825 -0.0 1e-06 -18.123444 3.648182 -4.905675 -6e-06 0.0 -1e-06 21.337828 4.924692 18.376564 50.235313 12.355183 12.197023 -0.096072 42.485142 -0.151923 1.483903 -0.036208 -23.007929 2.243542 -5.255037 -3.180158 14.282892 -0.826595 6.952505 -3e-06 -12.690603 2e-06 16.177542 -17.753862 2.81095 1.665666 -1.955921 -2.878299 4.727799 -4.170588 4.993925 11.020528 4e-06 -1e-06 12.109052 -3.735717 -2.866783 1e-06 1e-06 0.0 1.291986 -1.928549 -1.49809 14.800129 0.567465 3.865608 14.242572 -1.341736 -6.660657 19.631969 0.143924 -0.648245 50.193237 -0.732634 -6.054935 0.353029 -1.511151 -0.03194 20.222794 3.684307 2.31663 18.787273 5e-06 -1e-06 10.751629 -0.479869 1.397905 -1e-06 0.0 -1e-06 3.273807 0.305946 -0.580111 21.486813 11.830373 2.266133 8.162928 -1e-06 -2e-06 18.399084 -3.798985 -4.940575 4e-06 -0.0 -2e-06 -1.133781 5.692683 -11.220724 -0.017581 0.170743 11.313662 -2.234581 3.755535 -7.16855 1.622675 -1.841819 -0.781569 -0.0 -0.0 2e-06 -2.5453 -1.223678 -13.067743 -0.088472 -0.016703 16.534994 2.350464 -9.359097 -9.324982 -1.420659 1.116595 -0.828317 -0.0 0.0 -1e-06 
0.0 0.0 0.0 0.0 -0.0 0.0 4.877151 99.636787 2.924218 1.419991 -0.168823 7.394872 0.253277 -0.28525 -1.920463 -0.504728 -0.068139 -5.521924 -1.613006 -1.931537 10.269028 1.426098 1.858173 -10.709416 -0.071582 2.013685 -3.514589 -0.551786 1.206994 -4.202407 7.7e-05 -2.3e-05 6e-06 0.014067 -0.00405 -0.076052 0.776624 -3.749798 -10.633711 -0.754489 3.746608 -10.6277 -13.687551 -3.67444 16.451374 -53.216858 -10.474084 18.071672 -0.623102 -40.28199 0.291738 1.868248 -11.862973 -25.58383 -5.882103 9.861283 0.70259 -10.936868 -0.360576 7.156201 -0.0 8.774824 -3e-06 -15.773612 17.872631 6.560428 -1.844032 2.498506 -2.507277 -10.163596 4.678943 4.621107 -20.976013 -4e-06 3e-06 -21.226276 2.451696 -3.593999 1e-06 -6e-06 0.0 -1.362682 2.240798 -0.746322 -21.334909 0.584907 3.008322 -13.821208 -3e-06 3e-06 -23.887163 -0.249077 -0.839481 -60.668049 2.495431 -0.717115 -0.294025 1.679685 0.833255 -14.218204 0.093215 1.30058 -34.212036 -0.287564 0.967171 -20.033209 0.964536 1.212842 -1e-06 -1e-06 -0.0 -3.440388 0.788234 0.501656 -15.928183 -3.167311 2.999707 -6.338825 -2e-06 1e-06 -18.123444 3.648182 -4.905668 -6e-06 0.0 -1e-06 20.250853 5.348704 18.598707 51.912914 13.336216 11.422452 0.050373 41.122032 0.016164 0.91918 0.17758 -24.618538 2.24354 -5.255036 -3.180156 14.282884 -0.826595 6.952501 -1e-06 -12.690604 -0.0 16.262171 -17.782808 2.743039 1.665665 -1.95592 -2.878298 4.727797 -4.170587 4.993922 11.02052 3e-06 -1e-06 12.109046 -3.735714 -2.866783 2e-06 1e-06 -0.0 1.291985 -1.928549 -1.498088 14.800122 0.567469 3.865607 14.242564 -1.341736 -6.660654 19.631956 0.143925 -0.648243 50.275692 -0.686476 -6.200999 0.353029 -1.51115 -0.03194 20.222784 3.684309 2.31663 18.787268 6e-06 1e-06 10.751623 -0.479868 1.397907 -1e-06 -0.0 0.0 3.273805 0.305946 -0.58011 21.486801 11.830372 2.266133 8.162925 -0.0 -0.0 18.399076 -3.798986 -4.940573 3e-06 0.0 -2e-06 -1.256764 5.046726 -14.119202 -0.013928 0.097837 15.58396 -2.548159 4.15857 -8.987411 1.640596 -1.862412 -0.859952 -0.0 -0.0 2e-06 -2.624009 -1.108734 -15.858075 -0.073717 0.005198 20.79553 2.729548 -9.903026 -10.866935 -1.428141 1.131183 -0.888078 -0.0 0.0 -1e-06 
0.0 0.0 0.0 0.0 -0.0 0.0 4.786629 98.721306 2.348074 1.532407 0.227702 7.611144 0.221798 -0.242278 -0.845727 -0.504853 -0.043777 -5.085596 -1.657436 -1.877769 10.150284 1.674002 1.94011 -11.98379 -0.305844 1.390425 -3.518793 -0.716576 0.651536 -6.250233 7.7e-05 -2.2e-05 6e-06 0.028728 0.039357 -0.068126 0.78577 -3.710787 -10.607292 -0.735713 3.791868 -10.605631 -11.767739 -4.488365 16.654963 -55.2173 -11.40551 15.447778 -0.799394 -38.660324 0.432096 0.479234 -12.382201 -24.627089 -5.88211 9.861295 0.702589 -10.936877 -0.360576 7.156208 1e-06 8.774832 -1e-06 -15.805934 17.937897 6.398814 -1.844034 2.498507 -2.507279 -10.163606 4.678947 4.621109 -20.97604 -7e-06 -2e-06 -21.226303 2.451695 -3.594006 1e-06 -6e-06 -1e-06 -1.362683 2.240801 -0.746324 -21.334929 0.584908 3.00832 -13.821221 -5e-06 -0.0 -23.887188 -0.249084 -0.839486 -60.637203 2.483901 -0.83836 -0.294025 1.679688 0.833256 -14.218217 0.093214 1.300577 -34.212074 -0.287569 0.967163 -20.03323 0.964534 1.212842 0.0 -0.0 -1e-06 -3.440391 0.788232 0.501656 -15.928196 -3.167314 2.999707 -6.33883 0.0 -0.0 -18.123459 3.648185 -4.905679 -7e-06 -0.0 -1e-06 18.399565 6.026244 18.680708 54.122677 14.206145 10.77358 0.048716 39.418919 0.090096 0.555608 0.310757 -27.508636 2.243543 -5.255041 -3.180159 14.282896 -0.826593 6.952506 -2e-06 -12.690611 -1e-06 16.288589 -17.906736 2.72464 1.665667 -1.955923 -2.8783 4.727801 -4.17059 4.993925 11.020531 3e-06 -2e-06 12.109058 -3.735717 -2.866787 1e-06 0.0 -0.0 1.291986 -1.928551 -1.49809 14.800136 0.567469 3.865608 14.242579 -1.341737 -6.660661 19.631975 0.143927 -0.648245 50.293629 -0.654517 -6.380752 0.353029 -1.511152 -0.03194 20.222801 3.684313 2.31663 18.787283 5e-06 -2e-06 10.751633 -0.479868 1.397906 0.0 0.0 -0.0 3.273808 0.305947 -0.580111 21.486822 11.830382 2.266135 8.16293 2e-06 -1e-06 18.399092 -3.798985 -4.940578 3e-06 -0.0 -2e-06 -1.30552 4.322921 -17.951138 -0.00955 0.05822 22.057764 -2.723298 4.456516 -11.850699 1.670351 -1.893761 -0.815135 -0.0 -0.0 2e-06 -2.639424 -1.21001 -19.212036 -0.090949 -0.005694 26.686201 3.096062 -10.322674 -13.332695 -1.435051 1.091499 -0.853053 0.0 0.0 -1e-06 
0.0 0.0 0.0 0.0 -0.0 0.0 4.640481 97.327248 1.75123 1.525666 0.49412 7.595008 0.229942 -0.186474 0.268311 -0.482666 0.044985 -4.554933 -1.697493 -1.765062 10.139935 1.910309 1.951181 -13.41892 -0.613112 0.923693 -3.509185 -0.801396 0.02349 -8.374409 7.7e-05 -2.3e-05 6e-06 0.036793 0.026298 -0.063988 0.781103 -3.727646 -10.574615 -0.71721 3.779617 -10.57334 -10.046615 -5.064862 16.738028 -56.557281 -11.933675 12.284385 -1.101013 -36.879768 0.674185 -1.027138 -13.098169 -23.680639 -5.882114 9.861299 0.702589 -10.936885 -0.360576 7.156211 -0.0 8.774837 -3e-06 -15.87129 17.888735 6.132095 -1.844035 2.498509 -2.507281 -10.163612 4.67895 4.621111 -20.976053 -4e-06 -1e-06 -21.226318 2.451698 -3.594008 0.0 -6e-06 0.0 -1.362683 2.240802 -0.746325 -21.334942 0.584909 3.008323 -13.821233 -3e-06 0.0 -23.887201 -0.249082 -0.839487 -60.529663 2.466016 -1.081636 -0.294025 1.679689 0.833256 -14.218227 0.093215 1.300578 -34.212097 -0.287569 0.967165 -20.033237 0.964534 1.212843 -0.0 -0.0 0.0 -3.440393 0.788236 0.501655 -15.928206 -3.167314 2.999707 -6.338833 0.0 -2e-06 -18.12347 3.648186 -4.905679 -4e-06 -0.0 -2e-06 16.524107 6.722891 18.668285 55.86261 14.882507 10.058101 0.113926 37.169678 0.118274 0.618697 0.481135 -30.633549 2.243544 -5.255044 -3.180161 14.2829 -0.826595 6.952507 -1e-06 -12.690623 -1e-06 16.137846 -18.169113 2.778204 1.665668 -1.955923 -2.878302 4.727801 -4.170593 4.993927 11.020536 3e-06 -3e-06 12.109063 -3.735721 -2.86679 0.0 0.0 0.0 1.291987 -1.928552 -1.498091 14.80014 0.56747 3.86561 14.242582 -1.341738 -6.660666 19.631985 0.143928 -0.648247 50.178799 -0.776073 -6.61095 0.353029 -1.511153 -0.03194 20.222805 3.684316 2.316631 18.787289 5e-06 -4e-06 10.751636 -0.479868 1.397907 0.0 -1e-06 -0.0 3.273809 0.305948 -0.580112 21.486832 11.830392 2.266136 8.162932 2e-06 -2e-06 18.399094 -3.798989 -4.940581 4e-06 -0.0 -1e-06 -1.171734 3.78049 -22.073193 0.008928 0.048079 29.655592 -2.999238 4.705721 -15.238135 1.71559 -1.921509 -0.834517 0.0 -0.0 2e-06 -2.485024 -1.500702 -22.955452 -0.139738 -0.105078 33.636448 3.4962 -10.304174 -16.21891 -1.436789 1.060854 -0.814342 0.0 0.0 -1e-06 
